<svg xmlns="http://www.w3.org/2000/svg" width="319.735" height="263.039" viewBox="-122.637 -33.077 319.735 263.039"><title>Neo4j Graph Visualization</title><desc>Created using Neo4j (http://www.neo4j.com/)</desc><g class="layer relationships"><g class="relationship"><path fill="#A5ABB6" stroke="none" d="M 25 0.5 L 69.16477997061374 0.5 L 69.16477997061374 -0.5 L 25 -0.5 Z M 114.28196747061374 0.5 L 158.44674744122747 0.5 L 158.44674744122747 3.5 L 165.44674744122747 0 L 158.44674744122747 -3.5 L 158.44674744122747 -0.5 L 114.28196747061374 -0.5 Z" class="outline" transform="translate(168.09793731818493 119.04336533429762) rotate(514.5235826488997)"/><text x="91.723" y="3" fill="#000" font-family="sans-serif" font-size="8" pointer-events="none" text-anchor="middle" transform="translate(168.09793731818493 119.04336533429762) rotate(514.5235826488997) rotate(180 91.72337372061374 0)">FOLLOWS</text></g><g class="relationship"><path fill="#A5ABB6" stroke="none" d="M 25 0.5 L 41.69193592015017 0.5 L 41.69193592015017 -0.5 L 25 -0.5 Z M 86.80912342015017 0.5 L 103.50105934030034 0.5 L 103.50105934030034 3.5 L 110.50105934030034 0 L 103.50105934030034 -3.5 L 103.50105934030034 -0.5 L 86.80912342015017 -0.5 Z" class="outline" transform="translate(168.09793731818493 119.04336533429762) rotate(244.91737533022325)"/><text x="64.251" y="3" fill="#000" font-family="sans-serif" font-size="8" pointer-events="none" text-anchor="middle" transform="translate(168.09793731818493 119.04336533429762) rotate(244.91737533022325) rotate(180 64.25052967015017 0)">FOLLOWS</text></g><g class="relationship"><path fill="#A5ABB6" stroke="none" d="M 25 0.5 L 41.668554526411114 0.5 L 41.668554526411114 -0.5 L 25 -0.5 Z M 86.78574202641111 0.5 L 103.45429655282223 0.5 L 103.45429655282223 3.5 L 110.45429655282223 0 L 103.45429655282223 -3.5 L 103.45429655282223 -0.5 L 86.78574202641111 -0.5 Z" class="outline" transform="translate(168.09793731818493 119.04336533429762) rotate(189.24773323514523)"/><text x="64.227" y="3" fill="#000" font-family="sans-serif" font-size="8" pointer-events="none" text-anchor="middle" transform="translate(168.09793731818493 119.04336533429762) rotate(189.24773323514523) rotate(180 64.22714827641111 0)">FOLLOWS</text></g><g class="relationship"><path fill="#A5ABB6" stroke="none" d="M 25 0.5 L 37.19920940057358 0.5 L 37.19920940057358 -0.5 L 25 -0.5 Z M 82.31639690057358 0.5 L 94.51560630114716 0.5 L 94.51560630114716 3.5 L 101.51560630114716 0 L 94.51560630114716 -3.5 L 94.51560630114716 -0.5 L 82.31639690057358 -0.5 Z" class="outline" transform="translate(110.6556800842647 -3.679591630631066) rotate(487.06382689232794)"/><text x="59.758" y="3" fill="#000" font-family="sans-serif" font-size="8" pointer-events="none" text-anchor="middle" transform="translate(110.6556800842647 -3.679591630631066) rotate(487.06382689232794) rotate(180 59.75780315057358 0)">FOLLOWS</text></g><g class="relationship"><path fill="#A5ABB6" stroke="none" d="M 25 0.5 L 29.197160591234976 0.5 L 29.197160591234976 -0.5 L 25 -0.5 Z M 74.31434809123498 0.5 L 78.51150868246995 0.5 L 78.51150868246995 3.5 L 85.51150868246995 0 L 78.51150868246995 -3.5 L 78.51150868246995 -0.5 L 74.31434809123498 -0.5 Z" class="outline" transform="translate(-3.8302262453590004 200.9620456496565) rotate(290.2414267104534)"/><text x="51.756" y="3" fill="#000" font-family="sans-serif" font-size="8" pointer-events="none" text-anchor="middle" transform="translate(-3.8302262453590004 200.9620456496565) rotate(290.2414267104534)">FOLLOWS</text></g><g class="relationship"><path fill="#A5ABB6" stroke="none" d="M 25 0.5 L 41.55566596454996 0.5 L 41.55566596454996 -0.5 L 25 -0.5 Z M 86.67285346454996 0.5 L 103.22851942909992 0.5 L 103.22851942909992 3.5 L 110.22851942909992 0 L 103.22851942909992 -3.5 L 103.22851942909992 -0.5 L 86.67285346454996 -0.5 Z" class="outline" transform="translate(-15.250207388640373 -4.0772438395895385) rotate(485.4266818086045)"/><text x="64.114" y="3" fill="#000" font-family="sans-serif" font-size="8" pointer-events="none" text-anchor="middle" transform="translate(-15.250207388640373 -4.0772438395895385) rotate(485.4266818086045) rotate(180 64.11425971454996 0)">FOLLOWS</text></g><g class="relationship"><path fill="#A5ABB6" stroke="none" d="M 25 0.5 L 30.372587770550382 0.5 L 30.372587770550382 -0.5 L 25 -0.5 Z M 75.48977527055038 0.5 L 80.86236304110076 0.5 L 80.86236304110076 3.5 L 87.86236304110076 0 L 80.86236304110076 -3.5 L 80.86236304110076 -0.5 L 75.48977527055038 -0.5 Z" class="outline" transform="translate(-15.250207388640373 -4.0772438395895385) rotate(423.89897646929666)"/><text x="52.931" y="3" fill="#000" font-family="sans-serif" font-size="8" pointer-events="none" text-anchor="middle" transform="translate(-15.250207388640373 -4.0772438395895385) rotate(423.89897646929666)">FOLLOWS</text></g><g class="relationship"><path fill="#A5ABB6" stroke="none" d="M 25 0.5 L 38.11430534216737 0.5 L 38.11430534216737 -0.5 L 25 -0.5 Z M 83.23149284216737 0.5 L 96.34579818433474 0.5 L 96.34579818433474 3.5 L 103.34579818433474 0 L 96.34579818433474 -3.5 L 96.34579818433474 -0.5 L 83.23149284216737 -0.5 Z" class="outline" transform="translate(-93.63686597772448 106.11478954860428) rotate(356.0508102883432)"/><text x="60.673" y="3" fill="#000" font-family="sans-serif" font-size="8" pointer-events="none" text-anchor="middle" transform="translate(-93.63686597772448 106.11478954860428) rotate(356.0508102883432)">FOLLOWS</text></g></g><g class="layer nodes"><g class="node" transform="translate(168.09793731818493,119.04336533429762)"><circle cx="0" cy="0" r="25" fill="#A5ABB6" stroke="#9AA1AC" stroke-width="2" class="outline"/><text x="0" y="5" fill="#FFF" font-family="sans-serif" font-size="10" pointer-events="none" text-anchor="middle">Alice</text></g><g class="node" transform="translate(110.6556800842647,-3.679591630631066)"><circle cx="0" cy="0" r="25" fill="#A5ABB6" stroke="#9AA1AC" stroke-width="2" class="outline"/><text x="0" y="5" fill="#FFF" font-family="sans-serif" font-size="10" pointer-events="none" text-anchor="middle">Bridget</text></g><g class="node" transform="translate(-3.8302262453590004,200.9620456496565)"><circle cx="0" cy="0" r="25" fill="#A5ABB6" stroke="#9AA1AC" stroke-width="2" class="outline"/><text x="0" y="5" fill="#FFF" font-family="sans-serif" font-size="10" pointer-events="none" text-anchor="middle">Charles</text></g><g class="node" transform="translate(34.40417748494557,97.27538342802018)"><circle cx="0" cy="0" r="25" fill="#A5ABB6" stroke="#9AA1AC" stroke-width="2" class="outline"/><text x="0" y="5" fill="#FFF" font-family="sans-serif" font-size="10" pointer-events="none" text-anchor="middle">Doug</text></g><g class="node" transform="translate(-15.250207388640373,-4.0772438395895385)"><circle cx="0" cy="0" r="25" fill="#A5ABB6" stroke="#9AA1AC" stroke-width="2" class="outline"/><text x="0" y="5" fill="#FFF" font-family="sans-serif" font-size="10" pointer-events="none" text-anchor="middle">Mark</text></g><g class="node" transform="translate(-93.63686597772448,106.11478954860428)"><circle cx="0" cy="0" r="25" fill="#A5ABB6" stroke="#9AA1AC" stroke-width="2" class="outline"/><text x="0" y="5" fill="#FFF" font-family="sans-serif" font-size="10" pointer-events="none" text-anchor="middle">Michael</text></g></g></svg>