<svg xmlns="http://www.w3.org/2000/svg" width="377.8" height="166.993" viewBox="-334.186 -42.241 377.8 166.993"><title>Neo4j Graph Visualization</title><desc>Created using Neo4j (http://www.neo4j.com/)</desc><g class="layer relationships"><g class="relationship"><path fill="#A5ABB6" stroke="none" d="M 24.018736134675446,-6.953439040707552 L 24.277555179777966,-5.987513214418485 A 266.7745366348679 266.7745366348679 0 0 1 76.77575244587321,-14.563896709194012 L 76.71372203707877,-15.561970969149058 A 267.7745366348679 267.7745366348679 0 0 0 24.018736134675446,-6.953439040707552 Z M 104.97873547623266,-15.823877028618028 L 104.93521061530518,-14.824824684403154 A 266.7745366348679 266.7745366348679 0 0 1 157.58331900449596,-7.2227359530524415 L 156.8606926945888,-4.311067837310198 L 164.49764899287905,-6.021885915892819 L 158.5468207510388,-11.104960107375433 L 157.82419444113165,-8.19329199163319 A 267.7745366348679 267.7745366348679 0 0 0 104.97873547623266,-15.823877028618028" class="outline" transform="translate(-151.07146815377075 -13.240895004750314) rotate(504.7312744029352)"/><text x="90.847" y="-12.566" fill="#000" font-family="sans-serif" font-size="8" pointer-events="none" text-anchor="middle" transform="translate(-151.07146815377075 -13.240895004750314) rotate(504.7312744029352) rotate(180 90.84740334696768 -15.566161712357484)">READ</text></g><g class="relationship"><path fill="#A5ABB6" stroke="none" d="M 24.018736134675446,6.953439040707552 L 24.277555179777966,5.987513214418485 A 266.7745366348679 266.7745366348679 0 0 0 76.7757524458732,14.563896709194012 L 76.71372203707875,15.561970969149058 A 267.7745366348679 267.7745366348679 0 0 1 24.018736134675446,6.953439040707552 Z M 104.9787354762327,15.823877028618028 L 104.93521061530524,14.824824684403154 A 266.7745366348679 266.7745366348679 0 0 0 157.58331900449596,7.2227359530524415 L 156.8606926945888,4.311067837310198 L 164.49764899287905,6.021885915892819 L 158.5468207510388,11.104960107375433 L 157.82419444113165,8.19329199163319 A 267.7745366348679 267.7745366348679 0 0 1 104.9787354762327,15.823877028618028" class="outline" transform="translate(-151.07146815377075 -13.240895004750314) rotate(504.7312744029352)"/><text x="90.847" y="18.566" fill="#000" font-family="sans-serif" font-size="8" pointer-events="none" text-anchor="middle" transform="translate(-151.07146815377075 -13.240895004750314) rotate(504.7312744029352) rotate(180 90.8474033469677 15.566161712357484)">READ</text></g><g class="relationship"><path fill="#A5ABB6" stroke="none" d="M 25 0.5 L 37.389599356238385 0.5 L 37.389599356238385 -0.5 L 25 -0.5 Z M 73.61225560623839 0.5 L 86.00185496247677 0.5 L 86.00185496247677 3.5 L 93.00185496247677 0 L 86.00185496247677 -3.5 L 86.00185496247677 -0.5 L 73.61225560623839 -0.5 Z" class="outline" transform="translate(-151.07146815377075 -13.240895004750314) rotate(424.60106548445225)"/><text x="55.501" y="3" fill="#000" font-family="sans-serif" font-size="8" pointer-events="none" text-anchor="middle" transform="translate(-151.07146815377075 -13.240895004750314) rotate(424.60106548445225)">KNOWS</text></g><g class="relationship"><path fill="#A5ABB6" stroke="none" d="M 25 0.5 L 35.117743155697184 0.5 L 35.117743155697184 -0.5 L 25 -0.5 Z M 71.34039940569718 0.5 L 81.45814256139437 0.5 L 81.45814256139437 3.5 L 88.45814256139437 0 L 81.45814256139437 -3.5 L 81.45814256139437 -0.5 L 71.34039940569718 -0.5 Z" class="outline" transform="translate(-151.07146815377075 -13.240895004750314) rotate(467.32842261332934)"/><text x="53.229" y="3" fill="#000" font-family="sans-serif" font-size="8" pointer-events="none" text-anchor="middle" transform="translate(-151.07146815377075 -13.240895004750314) rotate(467.32842261332934) rotate(180 53.229071280697184 0)">KNOWS</text></g><g class="relationship"><path fill="#A5ABB6" stroke="none" d="M 25 0.5 L 42.548481896535044 0.5 L 42.548481896535044 -0.5 L 25 -0.5 Z M 70.77504439653504 0.5 L 88.32352629307009 0.5 L 88.32352629307009 3.5 L 95.32352629307009 0 L 88.32352629307009 -3.5 L 88.32352629307009 -0.5 L 70.77504439653504 -0.5 Z" class="outline" transform="translate(-184.86480163550758 95.0677414268557) rotate(539.6740245440021)"/><text x="56.662" y="3" fill="#000" font-family="sans-serif" font-size="8" pointer-events="none" text-anchor="middle" transform="translate(-184.86480163550758 95.0677414268557) rotate(539.6740245440021) rotate(180 56.661763146535044 0)">READ</text></g><g class="relationship"><path fill="#A5ABB6" stroke="none" d="M 25 0.5 L 39.92407039353499 0.5 L 39.92407039353499 -0.5 L 25 -0.5 Z M 68.15063289353499 0.5 L 83.07470328706998 0.5 L 83.07470328706998 3.5 L 90.07470328706998 0 L 83.07470328706998 -3.5 L 83.07470328706998 -0.5 L 68.15063289353499 -0.5 Z" class="outline" transform="translate(-100.45830903003983 93.35528643765079) rotate(359.63418430902493)"/><text x="54.037" y="3" fill="#000" font-family="sans-serif" font-size="8" pointer-events="none" text-anchor="middle" transform="translate(-100.45830903003983 93.35528643765079) rotate(359.63418430902493)">READ</text></g></g><g class="layer nodes"><g class="node" transform="translate(-151.07146815377075,-13.240895004750314)"><circle cx="0" cy="0" r="25" fill="#DA7194" stroke="#cc3c6c" stroke-width="2" class="outline"/><text x="0" y="5" fill="#FFF" font-family="sans-serif" font-size="10" pointer-events="none" text-anchor="middle">Florentin</text></g><g class="node" transform="translate(-184.86480163550758,95.0677414268557)"><circle cx="0" cy="0" r="25" fill="#DA7194" stroke="#cc3c6c" stroke-width="2" class="outline"/><text x="0" y="5" fill="#FFF" font-family="sans-serif" font-size="10" pointer-events="none" text-anchor="middle">Adam</text></g><g class="node" transform="translate(-100.45830903003983,93.35528643765079)"><circle cx="0" cy="0" r="25" fill="#DA7194" stroke="#cc3c6c" stroke-width="2" class="outline"/><text x="0" y="5" fill="#FFF" font-family="sans-serif" font-size="10" pointer-events="none" text-anchor="middle">Veselin</text></g><g class="node" transform="translate(-305.1863805789929,95.75229978504026)"><circle cx="0" cy="0" r="25" fill="#8DCC93" stroke="#5db665" stroke-width="2" class="outline"/><text x="0" y="0" fill="#604A0E" font-family="sans-serif" font-size="10" pointer-events="none" text-anchor="middle">The</text><text x="0" y="10" fill="#604A0E" font-family="sans-serif" font-size="10" pointer-events="none" text-anchor="middle">Hobbit</text></g><g class="node" transform="translate(14.614048798343845,92.62057532188979)"><circle cx="0" cy="0" r="25" fill="#8DCC93" stroke="#5db665" stroke-width="2" class="outline"/><text x="0" y="5" fill="#604A0E" font-family="sans-serif" font-size="10" pointer-events="none" text-anchor="middle">Franken…</text></g></g></svg>