<svg xmlns="http://www.w3.org/2000/svg" width="463.639" height="272.796" viewBox="-465.679 -23.942 463.639 272.796"><title>Neo4j Graph Visualization</title><desc>Created using Neo4j (http://www.neo4j.com/)</desc><g class="layer relationships"><g class="relationship"><path fill="#A5ABB6" stroke="none" d="M 25 0.5 L 94.92262816140979 0.5 L 94.92262816140979 -0.5 L 25 -0.5 Z M 131.1452844114098 0.5 L 201.06791257281958 0.5 L 201.06791257281958 3.5 L 208.06791257281958 0 L 201.06791257281958 -3.5 L 201.06791257281958 -0.5 L 131.1452844114098 -0.5 Z" class="outline" transform="translate(-208.01330131644548 122.13565420748404) rotate(191.15329050135318)"/><text x="113.034" y="3" fill="#000" font-family="sans-serif" font-size="8" pointer-events="none" text-anchor="middle" transform="translate(-208.01330131644548 122.13565420748404) rotate(191.15329050135318) rotate(180 113.03395628640979 0)">KNOWS</text></g><g class="relationship"><path fill="#A5ABB6" stroke="none" d="M 25 0.5 L 30.90863304976139 0.5 L 30.90863304976139 -0.5 L 25 -0.5 Z M 67.13128929976139 0.5 L 73.03992234952278 0.5 L 73.03992234952278 3.5 L 80.03992234952278 0 L 73.03992234952278 -3.5 L 73.03992234952278 -0.5 L 67.13128929976139 -0.5 Z" class="outline" transform="translate(-208.01330131644548 122.13565420748404) rotate(240.71376992415827)"/><text x="49.02" y="3" fill="#000" font-family="sans-serif" font-size="8" pointer-events="none" text-anchor="middle" transform="translate(-208.01330131644548 122.13565420748404) rotate(240.71376992415827) rotate(180 49.01996117476139 0)">KNOWS</text></g><g class="relationship"><path fill="#A5ABB6" stroke="none" d="M 25 0.5 L 27.25319942328887 0.5 L 27.25319942328887 -0.5 L 25 -0.5 Z M 63.47585567328887 0.5 L 65.72905509657774 0.5 L 65.72905509657774 3.5 L 72.72905509657774 0 L 65.72905509657774 -3.5 L 65.72905509657774 -0.5 L 63.47585567328887 -0.5 Z" class="outline" transform="translate(-208.01330131644548 122.13565420748404) rotate(450.8459229702953)"/><text x="45.365" y="3" fill="#000" font-family="sans-serif" font-size="8" pointer-events="none" text-anchor="middle" transform="translate(-208.01330131644548 122.13565420748404) rotate(450.8459229702953) rotate(180 45.36452754828887 0)">KNOWS</text></g><g class="relationship"><path fill="#A5ABB6" stroke="none" d="M 25 0.5 L 112.57391770576368 0.5 L 112.57391770576368 -0.5 L 25 -0.5 Z M 148.79657395576368 0.5 L 236.37049166152735 0.5 L 236.37049166152735 3.5 L 243.37049166152735 0 L 236.37049166152735 -3.5 L 236.37049166152735 -0.5 L 148.79657395576368 -0.5 Z" class="outline" transform="translate(-209.45613445113776 219.85405801462448) rotate(212.14792212403768)"/><text x="130.685" y="3" fill="#000" font-family="sans-serif" font-size="8" pointer-events="none" text-anchor="middle" transform="translate(-209.45613445113776 219.85405801462448) rotate(212.14792212403768) rotate(180 130.68524583076368 0)">KNOWS</text></g><g class="relationship"><path fill="#A5ABB6" stroke="none" d="M 25 0.5 L 70.03270383103329 0.5 L 70.03270383103329 -0.5 L 25 -0.5 Z M 106.25536008103329 0.5 L 151.28806391206658 0.5 L 151.28806391206658 3.5 L 158.28806391206658 0 L 151.28806391206658 -3.5 L 151.28806391206658 -0.5 L 106.25536008103329 -0.5 Z" class="outline" transform="translate(-436.67930122331086 77.05226083869564) rotate(345.2934573590562)"/><text x="88.144" y="3" fill="#000" font-family="sans-serif" font-size="8" pointer-events="none" text-anchor="middle" transform="translate(-436.67930122331086 77.05226083869564) rotate(345.2934573590562)">KNOWS</text></g><g class="relationship"><path fill="#A5ABB6" stroke="none" d="M 25 0.5 L 41.28938735177216 0.5 L 41.28938735177216 -0.5 L 25 -0.5 Z M 77.51204360177216 0.5 L 93.80143095354433 0.5 L 93.80143095354433 3.5 L 100.80143095354433 0 L 93.80143095354433 -3.5 L 93.80143095354433 -0.5 L 77.51204360177216 -0.5 Z" class="outline" transform="translate(-436.67930122331086 77.05226083869564) rotate(370.15015205626423)"/><text x="59.401" y="3" fill="#000" font-family="sans-serif" font-size="8" pointer-events="none" text-anchor="middle" transform="translate(-436.67930122331086 77.05226083869564) rotate(370.15015205626423)">KNOWS</text></g><g class="relationship"><path fill="#A5ABB6" stroke="none" d="M 25 0.5 L 51.22258183871129 0.5 L 51.22258183871129 -0.5 L 25 -0.5 Z M 87.44523808871129 0.5 L 113.66781992742258 0.5 L 113.66781992742258 3.5 L 120.66781992742258 0 L 113.66781992742258 -3.5 L 113.66781992742258 -0.5 L 87.44523808871129 -0.5 Z" class="outline" transform="translate(-115.97088379791516 5.058386204832491) rotate(529.9329433111313)"/><text x="69.334" y="3" fill="#000" font-family="sans-serif" font-size="8" pointer-events="none" text-anchor="middle" transform="translate(-115.97088379791516 5.058386204832491) rotate(529.9329433111313) rotate(180 69.33390996371129 0)">KNOWS</text></g><g class="relationship"><path fill="#A5ABB6" stroke="none" d="M 25 0.5 L 67.86406308563673 0.5 L 67.86406308563673 -0.5 L 25 -0.5 Z M 104.08671933563673 0.5 L 146.95078242127346 0.5 L 146.95078242127346 3.5 L 153.95078242127346 0 L 146.95078242127346 -3.5 L 146.95078242127346 -0.5 L 104.08671933563673 -0.5 Z" class="outline" transform="translate(-31.039908936693422 206.03258912145336) rotate(535.5702831094477)"/><text x="85.975" y="3" fill="#000" font-family="sans-serif" font-size="8" pointer-events="none" text-anchor="middle" transform="translate(-31.039908936693422 206.03258912145336) rotate(535.5702831094477) rotate(180 85.97539121063673 0)">KNOWS</text></g><g class="relationship"><path fill="#A5ABB6" stroke="none" d="M 25 0.5 L 76.31501830224664 0.5 L 76.31501830224664 -0.5 L 25 -0.5 Z M 112.53767455224664 0.5 L 163.85269285449328 0.5 L 163.85269285449328 3.5 L 170.85269285449328 0 L 163.85269285449328 -3.5 L 163.85269285449328 -0.5 L 112.53767455224664 -0.5 Z" class="outline" transform="translate(-31.039908936693422 206.03258912145336) rotate(205.36400423305548)"/><text x="94.426" y="3" fill="#000" font-family="sans-serif" font-size="8" pointer-events="none" text-anchor="middle" transform="translate(-31.039908936693422 206.03258912145336) rotate(205.36400423305548) rotate(180 94.42634642724664 0)">KNOWS</text></g></g><g class="layer nodes"><g class="node" transform="translate(-208.01330131644548,122.13565420748404)"><circle cx="0" cy="0" r="25" fill="#F79767" stroke="#f36924" stroke-width="2" class="outline"/><text x="0" y="5" fill="#FFF" font-family="sans-serif" font-size="10" pointer-events="none" text-anchor="middle">Annie</text></g><g class="node" transform="translate(-209.45613445113776,219.85405801462448)"><circle cx="0" cy="0" r="25" fill="#F79767" stroke="#f36924" stroke-width="2" class="outline"/><text x="0" y="5" fill="#FFF" font-family="sans-serif" font-size="10" pointer-events="none" text-anchor="middle">Matt</text></g><g class="node" transform="translate(-259.3959797859601,30.52121407661682)"><circle cx="0" cy="0" r="25" fill="#F79767" stroke="#f36924" stroke-width="2" class="outline"/><text x="0" y="5" fill="#FFF" font-family="sans-serif" font-size="10" pointer-events="none" text-anchor="middle">Jeff</text></g><g class="node" transform="translate(-436.67930122331086,77.05226083869564)"><circle cx="0" cy="0" r="25" fill="#F79767" stroke="#f36924" stroke-width="2" class="outline"/><text x="0" y="5" fill="#FFF" font-family="sans-serif" font-size="10" pointer-events="none" text-anchor="middle">Brie</text></g><g class="node" transform="translate(-312.84675058701123,99.22204732543626)"><circle cx="0" cy="0" r="25" fill="#F79767" stroke="#f36924" stroke-width="2" class="outline"/><text x="0" y="5" fill="#FFF" font-family="sans-serif" font-size="10" pointer-events="none" text-anchor="middle">Elsa</text></g><g class="node" transform="translate(-115.97088379791516,5.058386204832491)"><circle cx="0" cy="0" r="25" fill="#F79767" stroke="#f36924" stroke-width="2" class="outline"/><text x="0" y="5" fill="#FFF" font-family="sans-serif" font-size="10" pointer-events="none" text-anchor="middle">John</text></g><g class="node" transform="translate(-31.039908936693422,206.03258912145336)"><circle cx="0" cy="0" r="25" fill="#F79767" stroke="#f36924" stroke-width="2" class="outline"/><text x="0" y="5" fill="#FFF" font-family="sans-serif" font-size="10" pointer-events="none" text-anchor="middle">Dan</text></g></g></svg>