<svg xmlns="http://www.w3.org/2000/svg" width="486.191" height="466.555" viewBox="-272.477 -205.899 486.191 466.555"><title>Neo4j Graph Visualization</title><desc>Created using Neo4j (http://www.neo4j.com/)</desc><g class="layer relationships"><g class="relationship"><path fill="#A5ABB6" stroke="none" d="M 25 0.5 L 110.75681846470096 0.5 L 110.75681846470096 -0.5 L 25 -0.5 Z M 139.43650596470096 0.5 L 225.1933244294019 0.5 L 225.1933244294019 3.5 L 232.1933244294019 0 L 225.1933244294019 -3.5 L 225.1933244294019 -0.5 L 139.43650596470096 -0.5 Z" class="outline" transform="translate(-243.47720810498578 136.52635767148467) rotate(381.70800538231254)"/><text x="125.097" y="3" fill="#000" font-family="sans-serif" font-size="8" pointer-events="none" text-anchor="middle" transform="translate(-243.47720810498578 136.52635767148467) rotate(381.70800538231254)">LIKES</text></g><g class="relationship"><path fill="#A5ABB6" stroke="none" d="M 25 0.5 L 92.01013251970869 0.5 L 92.01013251970869 -0.5 L 25 -0.5 Z M 120.68982001970869 0.5 L 187.69995253941738 0.5 L 187.69995253941738 3.5 L 194.69995253941738 0 L 187.69995253941738 -3.5 L 187.69995253941738 -0.5 L 120.68982001970869 -0.5 Z" class="outline" transform="translate(-243.47720810498578 136.52635767148467) rotate(354.62788073716195)"/><text x="106.35" y="3" fill="#000" font-family="sans-serif" font-size="8" pointer-events="none" text-anchor="middle" transform="translate(-243.47720810498578 136.52635767148467) rotate(354.62788073716195)">LIKES</text></g><g class="relationship"><path fill="#A5ABB6" stroke="none" d="M 25 0.5 L 81.77685978283826 0.5 L 81.77685978283826 -0.5 L 25 -0.5 Z M 110.45654728283826 0.5 L 167.23340706567652 0.5 L 167.23340706567652 3.5 L 174.23340706567652 0 L 167.23340706567652 -3.5 L 167.23340706567652 -0.5 L 110.45654728283826 -0.5 Z" class="outline" transform="translate(-243.47720810498578 136.52635767148467) rotate(274.97144538275165)"/><text x="96.117" y="3" fill="#000" font-family="sans-serif" font-size="8" pointer-events="none" text-anchor="middle" transform="translate(-243.47720810498578 136.52635767148467) rotate(274.97144538275165)">LIKES</text></g><g class="relationship"><path fill="#A5ABB6" stroke="none" d="M 25 0.5 L 188.99564501413727 0.5 L 188.99564501413727 -0.5 L 25 -0.5 Z M 225.21830126413727 0.5 L 389.21394627827453 0.5 L 389.21394627827453 3.5 L 396.21394627827453 0 L 389.21394627827453 -3.5 L 389.21394627827453 -0.5 L 225.21830126413727 -0.5 Z" class="outline" transform="translate(-243.47720810498578 136.52635767148467) rotate(367.0502851725626)"/><text x="207.107" y="3" fill="#000" font-family="sans-serif" font-size="8" pointer-events="none" text-anchor="middle" transform="translate(-243.47720810498578 136.52635767148467) rotate(367.0502851725626)">KNOWS</text></g><g class="relationship"><path fill="#A5ABB6" stroke="none" d="M 25 0.5 L 88.06849211165093 0.5 L 88.06849211165093 -0.5 L 25 -0.5 Z M 124.29114836165093 0.5 L 187.35964047330185 0.5 L 187.35964047330185 3.5 L 194.35964047330185 0 L 187.35964047330185 -3.5 L 187.35964047330185 -0.5 L 124.29114836165093 -0.5 Z" class="outline" transform="translate(-243.47720810498578 136.52635767148467) rotate(329.8773575988414)"/><text x="106.18" y="3" fill="#000" font-family="sans-serif" font-size="8" pointer-events="none" text-anchor="middle" transform="translate(-243.47720810498578 136.52635767148467) rotate(329.8773575988414)">KNOWS</text></g><g class="relationship"><path fill="#A5ABB6" stroke="none" d="M 25 0.5 L 29.20867349507344 0.5 L 29.20867349507344 -0.5 L 25 -0.5 Z M 57.88836099507344 0.5 L 62.09703449014688 0.5 L 62.09703449014688 3.5 L 69.09703449014688 0 L 62.09703449014688 -3.5 L 62.09703449014688 -0.5 L 57.88836099507344 -0.5 Z" class="outline" transform="translate(-53.74139307328306 26.440153436659074) rotate(432.05021707790235)"/><text x="43.549" y="3" fill="#000" font-family="sans-serif" font-size="8" pointer-events="none" text-anchor="middle" transform="translate(-53.74139307328306 26.440153436659074) rotate(432.05021707790235)">LIKES</text></g><g class="relationship"><path fill="#A5ABB6" stroke="none" d="M 25 0.5 L 79.06241233060523 0.5 L 79.06241233060523 -0.5 L 25 -0.5 Z M 107.74209983060523 0.5 L 161.80451216121045 0.5 L 161.80451216121045 3.5 L 168.80451216121045 0 L 161.80451216121045 -3.5 L 161.80451216121045 -0.5 L 107.74209983060523 -0.5 Z" class="outline" transform="translate(-53.74139307328306 26.440153436659074) rotate(207.1368789036439)"/><text x="93.402" y="3" fill="#000" font-family="sans-serif" font-size="8" pointer-events="none" text-anchor="middle" transform="translate(-53.74139307328306 26.440153436659074) rotate(207.1368789036439) rotate(180 93.40225608060523 0)">LIKES</text></g><g class="relationship"><path fill="#A5ABB6" stroke="none" d="M 25 0.5 L 43.030723802925706 0.5 L 43.030723802925706 -0.5 L 25 -0.5 Z M 79.2533800529257 0.5 L 97.28410385585141 0.5 L 97.28410385585141 3.5 L 104.28410385585141 0 L 97.28410385585141 -3.5 L 97.28410385585141 -0.5 L 79.2533800529257 -0.5 Z" class="outline" transform="translate(-53.74139307328306 26.440153436659074) rotate(331.8470231379008)"/><text x="61.142" y="3" fill="#000" font-family="sans-serif" font-size="8" pointer-events="none" text-anchor="middle" transform="translate(-53.74139307328306 26.440153436659074) rotate(331.8470231379008)">KNOWS</text></g><g class="relationship"><path fill="#A5ABB6" stroke="none" d="M 25 0.5 L 78.62985687974698 0.5 L 78.62985687974698 -0.5 L 25 -0.5 Z M 114.85251312974698 0.5 L 168.48237000949396 0.5 L 168.48237000949396 3.5 L 175.48237000949396 0 L 168.48237000949396 -3.5 L 168.48237000949396 -0.5 L 114.85251312974698 -0.5 Z" class="outline" transform="translate(-53.74139307328306 26.440153436659074) rotate(269.17895324062385)"/><text x="96.741" y="3" fill="#000" font-family="sans-serif" font-size="8" pointer-events="none" text-anchor="middle" transform="translate(-53.74139307328306 26.440153436659074) rotate(269.17895324062385) rotate(180 96.74118500474698 0)">KNOWS</text></g><g class="relationship"><path fill="#A5ABB6" stroke="none" d="M 25 0.5 L 118.29272347949092 0.5 L 118.29272347949092 -0.5 L 25 -0.5 Z M 154.51537972949092 0.5 L 247.80810320898183 0.5 L 247.80810320898183 3.5 L 254.80810320898183 0 L 247.80810320898183 -3.5 L 247.80810320898183 -0.5 L 154.51537972949092 -0.5 Z" class="outline" transform="translate(-53.74139307328306 26.440153436659074) rotate(395.32432208251157)"/><text x="136.404" y="3" fill="#000" font-family="sans-serif" font-size="8" pointer-events="none" text-anchor="middle" transform="translate(-53.74139307328306 26.440153436659074) rotate(395.32432208251157)">KNOWS</text></g><g class="relationship"><path fill="#A5ABB6" stroke="none" d="M 25 0.5 L 74.29354066692692 0.5 L 74.29354066692692 -0.5 L 25 -0.5 Z M 102.97322816692692 0.5 L 152.26676883385383 0.5 L 152.26676883385383 3.5 L 159.26676883385383 0 L 152.26676883385383 -3.5 L 152.26676883385383 -0.5 L 102.97322816692692 -0.5 Z" class="outline" transform="translate(174.551860238303 188.22632439641768) rotate(526.3677057932795)"/><text x="88.633" y="3" fill="#000" font-family="sans-serif" font-size="8" pointer-events="none" text-anchor="middle" transform="translate(174.551860238303 188.22632439641768) rotate(526.3677057932795) rotate(180 88.63338441692692 0)">LIKES</text></g><g class="relationship"><path fill="#A5ABB6" stroke="none" d="M 25 0.5 L 103.58763684841446 0.5 L 103.58763684841446 -0.5 L 25 -0.5 Z M 139.81029309841446 0.5 L 218.39792994682892 0.5 L 218.39792994682892 3.5 L 225.39792994682892 0 L 218.39792994682892 -3.5 L 218.39792994682892 -0.5 L 139.81029309841446 -0.5 Z" class="outline" transform="translate(174.551860238303 188.22632439641768) rotate(242.8390336411248)"/><text x="121.699" y="3" fill="#000" font-family="sans-serif" font-size="8" pointer-events="none" text-anchor="middle" transform="translate(174.551860238303 188.22632439641768) rotate(242.8390336411248) rotate(180 121.69896497341446 0)">KNOWS</text></g><g class="relationship"><path fill="#A5ABB6" stroke="none" d="M 25 0.5 L 119.15114009572648 0.5 L 119.15114009572648 -0.5 L 25 -0.5 Z M 147.83082759572648 0.5 L 241.98196769145295 0.5 L 241.98196769145295 3.5 L 248.98196769145295 0 L 241.98196769145295 -3.5 L 241.98196769145295 -0.5 L 147.83082759572648 -0.5 Z" class="outline" transform="translate(60.247235371343066 -34.55961783441654) rotate(463.6745283700769)"/><text x="133.491" y="3" fill="#000" font-family="sans-serif" font-size="8" pointer-events="none" text-anchor="middle" transform="translate(60.247235371343066 -34.55961783441654) rotate(463.6745283700769) rotate(180 133.49098384572648 0)">LIKES</text></g><g class="relationship"><path fill="#A5ABB6" stroke="none" d="M 25 0.5 L 68.58718734577253 0.5 L 68.58718734577253 -0.5 L 25 -0.5 Z M 97.26687484577253 0.5 L 140.85406219154507 0.5 L 140.85406219154507 3.5 L 147.85406219154507 0 L 140.85406219154507 -3.5 L 140.85406219154507 -0.5 L 97.26687484577253 -0.5 Z" class="outline" transform="translate(60.247235371343066 -34.55961783441654) rotate(479.45129399145077)"/><text x="82.927" y="3" fill="#000" font-family="sans-serif" font-size="8" pointer-events="none" text-anchor="middle" transform="translate(60.247235371343066 -34.55961783441654) rotate(479.45129399145077) rotate(180 82.92703109577253 0)">LIKES</text></g><g class="relationship"><path fill="#A5ABB6" stroke="none" d="M 25 0.5 L 126.04328473752003 0.5 L 126.04328473752003 -0.5 L 25 -0.5 Z M 154.72297223752003 0.5 L 255.76625697504005 0.5 L 255.76625697504005 3.5 L 262.76625697504005 0 L 255.76625697504005 -3.5 L 255.76625697504005 -0.5 L 154.72297223752003 -0.5 Z" class="outline" transform="translate(60.247235371343066 -34.55961783441654) rotate(185.46334515296104)"/><text x="140.383" y="3" fill="#000" font-family="sans-serif" font-size="8" pointer-events="none" text-anchor="middle" transform="translate(60.247235371343066 -34.55961783441654) rotate(185.46334515296104) rotate(180 140.38312848752003 0)">LIKES</text></g><g class="relationship"><path fill="#A5ABB6" stroke="none" d="M 25 0.5 L 69.3642851740939 0.5 L 69.3642851740939 -0.5 L 25 -0.5 Z M 105.5869414240939 0.5 L 149.9512265981878 0.5 L 149.9512265981878 3.5 L 156.9512265981878 0 L 149.9512265981878 -3.5 L 149.9512265981878 -0.5 L 105.5869414240939 -0.5 Z" class="outline" transform="translate(60.247235371343066 -34.55961783441654) rotate(230.03885859263244)"/><text x="87.476" y="3" fill="#000" font-family="sans-serif" font-size="8" pointer-events="none" text-anchor="middle" transform="translate(60.247235371343066 -34.55961783441654) rotate(230.03885859263244) rotate(180 87.4756132990939 0)">KNOWS</text></g><g class="relationship"><path fill="#A5ABB6" stroke="none" d="M 25 0.5 L 39.1542193729481 0.5 L 39.1542193729481 -0.5 L 25 -0.5 Z M 75.37687562294809 0.5 L 89.5310949958962 0.5 L 89.5310949958962 3.5 L 96.5310949958962 0 L 89.5310949958962 -3.5 L 89.5310949958962 -0.5 L 75.37687562294809 -0.5 Z" class="outline" transform="translate(60.247235371343066 -34.55961783441654) rotate(374.6522354899457)"/><text x="57.266" y="3" fill="#000" font-family="sans-serif" font-size="8" pointer-events="none" text-anchor="middle" transform="translate(60.247235371343066 -34.55961783441654) rotate(374.6522354899457)">KNOWS</text></g><g class="relationship"><path fill="#A5ABB6" stroke="none" d="M 25 0.5 L 42.84607891237185 0.5 L 42.84607891237185 -0.5 L 25 -0.5 Z M 71.52576641237185 0.5 L 89.3718453247437 0.5 L 89.3718453247437 3.5 L 96.3718453247437 0 L 89.3718453247437 -3.5 L 89.3718453247437 -0.5 L 71.52576641237185 -0.5 Z" class="outline" transform="translate(69.67942595672592 -176.8988632728557) rotate(378.59717009337476)"/><text x="57.186" y="3" fill="#000" font-family="sans-serif" font-size="8" pointer-events="none" text-anchor="middle" transform="translate(69.67942595672592 -176.8988632728557) rotate(378.59717009337476)">LIKES</text></g><g class="relationship"><path fill="#A5ABB6" stroke="none" d="M 25 0.5 L 41.55187052278504 0.5 L 41.55187052278504 -0.5 L 25 -0.5 Z M 77.77452677278504 0.5 L 94.32639729557008 0.5 L 94.32639729557008 3.5 L 101.32639729557008 0 L 94.32639729557008 -3.5 L 94.32639729557008 -0.5 L 77.77452677278504 -0.5 Z" class="outline" transform="translate(69.67942595672592 -176.8988632728557) rotate(538.6949091057772)"/><text x="59.663" y="3" fill="#000" font-family="sans-serif" font-size="8" pointer-events="none" text-anchor="middle" transform="translate(69.67942595672592 -176.8988632728557) rotate(538.6949091057772) rotate(180 59.66319864778504 0)">KNOWS</text></g></g><g class="layer nodes"><g class="node" transform="translate(-243.47720810498578,136.52635767148467)"><circle cx="0" cy="0" r="25" fill="#F79767" stroke="#f36924" stroke-width="2" class="outline"/><text x="0" y="5" fill="#FFF" font-family="sans-serif" font-size="10" pointer-events="none" text-anchor="middle">Dan</text></g><g class="node" transform="translate(-53.74139307328306,26.440153436659074)"><circle cx="0" cy="0" r="25" fill="#F79767" stroke="#f36924" stroke-width="2" class="outline"/><text x="0" y="5" fill="#FFF" font-family="sans-serif" font-size="10" pointer-events="none" text-anchor="middle">Annie</text></g><g class="node" transform="translate(174.551860238303,188.22632439641768)"><circle cx="0" cy="0" r="25" fill="#F79767" stroke="#f36924" stroke-width="2" class="outline"/><text x="0" y="5" fill="#FFF" font-family="sans-serif" font-size="10" pointer-events="none" text-anchor="middle">Matt</text></g><g class="node" transform="translate(-56.61420095022504,-174.02163259630487)"><circle cx="0" cy="0" r="25" fill="#F79767" stroke="#f36924" stroke-width="2" class="outline"/><text x="0" y="5" fill="#FFF" font-family="sans-serif" font-size="10" pointer-events="none" text-anchor="middle">Jeff</text></g><g class="node" transform="translate(60.247235371343066,-34.55961783441654)"><circle cx="0" cy="0" r="25" fill="#F79767" stroke="#f36924" stroke-width="2" class="outline"/><text x="0" y="5" fill="#FFF" font-family="sans-serif" font-size="10" pointer-events="none" text-anchor="middle">Brie</text></g><g class="node" transform="translate(177.82601294006108,-3.818145580351029)"><circle cx="0" cy="0" r="25" fill="#F79767" stroke="#f36924" stroke-width="2" class="outline"/><text x="0" y="5" fill="#FFF" font-family="sans-serif" font-size="10" pointer-events="none" text-anchor="middle">Elsa</text></g><g class="node" transform="translate(69.67942595672592,-176.8988632728557)"><circle cx="0" cy="0" r="25" fill="#F79767" stroke="#f36924" stroke-width="2" class="outline"/><text x="0" y="5" fill="#FFF" font-family="sans-serif" font-size="10" pointer-events="none" text-anchor="middle">John</text></g><g class="node" transform="translate(-226.21178921593054,-61.95753538178809)"><circle cx="0" cy="0" r="25" fill="#57C7E3" stroke="#23b3d7" stroke-width="2" class="outline"/><text x="0" y="5" fill="#2A2C34" font-family="sans-serif" font-size="10" pointer-events="none" text-anchor="middle">Guitar</text></g><g class="node" transform="translate(-24.742256664483648,115.95720202173999)"><circle cx="0" cy="0" r="25" fill="#57C7E3" stroke="#23b3d7" stroke-width="2" class="outline"/><text x="0" y="5" fill="#2A2C34" font-family="sans-serif" font-size="10" pointer-events="none" text-anchor="middle">Synthesi…</text></g><g class="node" transform="translate(-4.523802424225323,231.65614293673957)"><circle cx="0" cy="0" r="25" fill="#57C7E3" stroke="#23b3d7" stroke-width="2" class="outline"/><text x="0" y="5" fill="#2A2C34" font-family="sans-serif" font-size="10" pointer-events="none" text-anchor="middle">Bongos</text></g><g class="node" transform="translate(184.71373874503544,-138.19186495401317)"><circle cx="0" cy="0" r="25" fill="#57C7E3" stroke="#23b3d7" stroke-width="2" class="outline"/><text x="0" y="5" fill="#2A2C34" font-family="sans-serif" font-size="10" pointer-events="none" text-anchor="middle">Trumpet</text></g></g></svg>