<svg xmlns="http://www.w3.org/2000/svg" width="578.693" height="267.144" viewBox="-177.78 -114.362 578.693 267.144"><title>Neo4j Graph Visualization</title><desc>Created using Neo4j (http://www.neo4j.com/)</desc><g class="layer relationships"><g class="relationship"><path fill="#A5ABB6" stroke="none" d="M 25 0.5 L 41.1388005887533 0.5 L 41.1388005887533 -0.5 L 25 -0.5 Z M 92.4747380887533 0.5 L 108.6135386775066 0.5 L 108.6135386775066 3.5 L 115.6135386775066 0 L 108.6135386775066 -3.5 L 108.6135386775066 -0.5 L 92.4747380887533 -0.5 Z" class="outline" transform="translate(106.8504726170198 -85.36174095845061) rotate(510.52849988996763)"/><text x="66.807" y="3" fill="#000" font-family="sans-serif" font-size="8" pointer-events="none" text-anchor="middle" transform="translate(106.8504726170198 -85.36174095845061) rotate(510.52849988996763) rotate(180 66.8067693387533 0)">FRIEND_OF</text></g><g class="relationship"><path fill="#A5ABB6" stroke="none" d="M 25 0.5 L 51.29763556828338 0.5 L 51.29763556828338 -0.5 L 25 -0.5 Z M 102.63357306828338 0.5 L 128.93120863656677 0.5 L 128.93120863656677 3.5 L 135.93120863656677 0 L 128.93120863656677 -3.5 L 128.93120863656677 -0.5 L 102.63357306828338 -0.5 Z" class="outline" transform="translate(-15.567748408756552 -16.181205977179957) rotate(415.3833042002833)"/><text x="76.966" y="3" fill="#000" font-family="sans-serif" font-size="8" pointer-events="none" text-anchor="middle" transform="translate(-15.567748408756552 -16.181205977179957) rotate(415.3833042002833)">FRIEND_OF</text></g><g class="relationship"><path fill="#A5ABB6" stroke="none" d="M 25 0.5 L 34.681069050406954 0.5 L 34.681069050406954 -0.5 L 25 -0.5 Z M 86.01700655040696 0.5 L 95.69807560081391 0.5 L 95.69807560081391 3.5 L 102.69807560081391 0 L 95.69807560081391 -3.5 L 95.69807560081391 -0.5 L 86.01700655040696 -0.5 Z" class="outline" transform="translate(-15.567748408756552 -16.181205977179957) rotate(388.5556511981245)"/><text x="60.349" y="3" fill="#000" font-family="sans-serif" font-size="8" pointer-events="none" text-anchor="middle" transform="translate(-15.567748408756552 -16.181205977179957) rotate(388.5556511981245)">FRIEND_OF</text></g><g class="relationship"><path fill="#A5ABB6" stroke="none" d="M 25 0.5 L 43.8937728721222 0.5 L 43.8937728721222 -0.5 L 25 -0.5 Z M 95.2297103721222 0.5 L 114.1234832442444 0.5 L 114.1234832442444 3.5 L 121.1234832442444 0 L 114.1234832442444 -3.5 L 114.1234832442444 -0.5 L 95.2297103721222 -0.5 Z" class="outline" transform="translate(-15.567748408756552 -16.181205977179957) rotate(472.2261954216517)"/><text x="69.562" y="3" fill="#000" font-family="sans-serif" font-size="8" pointer-events="none" text-anchor="middle" transform="translate(-15.567748408756552 -16.181205977179957) rotate(472.2261954216517) rotate(180 69.5617416221222 0)">FRIEND_OF</text></g><g class="relationship"><path fill="#A5ABB6" stroke="none" d="M 25 0.5 L 106.82377189392221 0.5 L 106.82377189392221 -0.5 L 25 -0.5 Z M 158.1597093939222 0.5 L 239.98348128784443 0.5 L 239.98348128784443 3.5 L 246.98348128784443 0 L 239.98348128784443 -3.5 L 239.98348128784443 -0.5 L 158.1597093939222 -0.5 Z" class="outline" transform="translate(-15.567748408756552 -16.181205977179957) rotate(359.6828422710354)"/><text x="132.492" y="3" fill="#000" font-family="sans-serif" font-size="8" pointer-events="none" text-anchor="middle" transform="translate(-15.567748408756552 -16.181205977179957) rotate(359.6828422710354)">FRIEND_OF</text></g><g class="relationship"><path fill="#A5ABB6" stroke="none" d="M 25 0.5 L 37.5935049341667 0.5 L 37.5935049341667 -0.5 L 25 -0.5 Z M 88.9294424341667 0.5 L 101.5229473683334 0.5 L 101.5229473683334 3.5 L 108.5229473683334 0 L 101.5229473683334 -3.5 L 101.5229473683334 -0.5 L 88.9294424341667 -0.5 Z" class="outline" transform="translate(-15.567748408756552 -16.181205977179957) rotate(183.90655462347104)"/><text x="63.261" y="3" fill="#000" font-family="sans-serif" font-size="8" pointer-events="none" text-anchor="middle" transform="translate(-15.567748408756552 -16.181205977179957) rotate(183.90655462347104) rotate(180 63.2614736841667 0)">FRIEND_OF</text></g><g class="relationship"><path fill="#A5ABB6" stroke="none" d="M 25 0.5 L 46.78023679778832 0.5 L 46.78023679778832 -0.5 L 25 -0.5 Z M 98.11617429778832 0.5 L 119.89641109557664 0.5 L 119.89641109557664 3.5 L 126.89641109557664 0 L 119.89641109557664 -3.5 L 119.89641109557664 -0.5 L 98.11617429778832 -0.5 Z" class="outline" transform="translate(201.10294155436563 123.78224393249062) rotate(291.3534778250904)"/><text x="72.448" y="3" fill="#000" font-family="sans-serif" font-size="8" pointer-events="none" text-anchor="middle" transform="translate(201.10294155436563 123.78224393249062) rotate(291.3534778250904)">FRIEND_OF</text></g><g class="relationship"><path fill="#A5ABB6" stroke="none" d="M 25 0.5 L 38.334566823656104 0.5 L 38.334566823656104 -0.5 L 25 -0.5 Z M 89.6705043236561 0.5 L 103.00507114731221 0.5 L 103.00507114731221 3.5 L 110.00507114731221 0 L 103.00507114731221 -3.5 L 103.00507114731221 -0.5 L 89.6705043236561 -0.5 Z" class="outline" transform="translate(371.91272874831856 -68.73088395487304) rotate(452.05253324790283)"/><text x="64.003" y="3" fill="#000" font-family="sans-serif" font-size="8" pointer-events="none" text-anchor="middle" transform="translate(371.91272874831856 -68.73088395487304) rotate(452.05253324790283) rotate(180 64.0025355736561 0)">FRIEND_OF</text></g><g class="relationship"><path fill="#A5ABB6" stroke="none" d="M 25 0.5 L 33.97081170791912 0.5 L 33.97081170791912 -0.5 L 25 -0.5 Z M 85.30674920791913 0.5 L 94.27756091583824 0.5 L 94.27756091583824 3.5 L 101.27756091583824 0 L 94.27756091583824 -3.5 L 94.27756091583824 -0.5 L 85.30674920791913 -0.5 Z" class="outline" transform="translate(371.91272874831856 -68.73088395487304) rotate(516.1576333301471)"/><text x="59.639" y="3" fill="#000" font-family="sans-serif" font-size="8" pointer-events="none" text-anchor="middle" transform="translate(371.91272874831856 -68.73088395487304) rotate(516.1576333301471) rotate(180 59.63878045791912 0)">FRIEND_OF</text></g><g class="relationship"><path fill="#A5ABB6" stroke="none" d="M 25 0.5 L 40.26154771573324 0.5 L 40.26154771573324 -0.5 L 25 -0.5 Z M 91.59748521573324 0.5 L 106.85903293146649 0.5 L 106.85903293146649 3.5 L 113.85903293146649 0 L 106.85903293146649 -3.5 L 106.85903293146649 -0.5 L 91.59748521573324 -0.5 Z" class="outline" transform="translate(256.4115659437839 -17.68674833036063) rotate(397.15870904738017)"/><text x="65.93" y="3" fill="#000" font-family="sans-serif" font-size="8" pointer-events="none" text-anchor="middle" transform="translate(256.4115659437839 -17.68674833036063) rotate(397.15870904738017)">FRIEND_OF</text></g><g class="relationship"><path fill="#A5ABB6" stroke="none" d="M 25 0.5 L 56.64145317662333 0.5 L 56.64145317662333 -0.5 L 25 -0.5 Z M 107.97739067662333 0.5 L 139.61884385324666 0.5 L 139.61884385324666 3.5 L 146.61884385324666 0 L 139.61884385324666 -3.5 L 139.61884385324666 -0.5 L 107.97739067662333 -0.5 Z" class="outline" transform="translate(256.4115659437839 -17.68674833036063) rotate(518.6261596861032)"/><text x="82.309" y="3" fill="#000" font-family="sans-serif" font-size="8" pointer-events="none" text-anchor="middle" transform="translate(256.4115659437839 -17.68674833036063) rotate(518.6261596861032) rotate(180 82.30942192662333 0)">FRIEND_OF</text></g><g class="relationship"><path fill="#A5ABB6" stroke="none" d="M 25 0.5 L 83.24051653905954 0.5 L 83.24051653905954 -0.5 L 25 -0.5 Z M 134.57645403905954 0.5 L 192.81697057811908 0.5 L 192.81697057811908 3.5 L 199.81697057811908 0 L 192.81697057811908 -3.5 L 192.81697057811908 -0.5 L 134.57645403905954 -0.5 Z" class="outline" transform="translate(256.4115659437839 -17.68674833036063) rotate(503.4299081571575)"/><text x="108.908" y="3" fill="#000" font-family="sans-serif" font-size="8" pointer-events="none" text-anchor="middle" transform="translate(256.4115659437839 -17.68674833036063) rotate(503.4299081571575) rotate(180 108.90848528905954 0)">FRIEND_OF</text></g><g class="relationship"><path fill="#A5ABB6" stroke="none" d="M 25 0.5 L 52.91190890632491 0.5 L 52.91190890632491 -0.5 L 25 -0.5 Z M 104.24784640632491 0.5 L 132.15975531264982 0.5 L 132.15975531264982 3.5 L 139.15975531264982 0 L 132.15975531264982 -3.5 L 132.15975531264982 -0.5 L 104.24784640632491 -0.5 Z" class="outline" transform="translate(256.4115659437839 -17.68674833036063) rotate(204.3463060075137)"/><text x="78.58" y="3" fill="#000" font-family="sans-serif" font-size="8" pointer-events="none" text-anchor="middle" transform="translate(256.4115659437839 -17.68674833036063) rotate(204.3463060075137) rotate(180 78.57987765632491 0)">FRIEND_OF</text></g><g class="relationship"><path fill="#A5ABB6" stroke="none" d="M 25 0.5 L 44.1934446658623 0.5 L 44.1934446658623 -0.5 L 25 -0.5 Z M 95.5293821658623 0.5 L 114.7228268317246 0.5 L 114.7228268317246 3.5 L 121.7228268317246 0 L 114.7228268317246 -3.5 L 114.7228268317246 -0.5 L 95.5293821658623 -0.5 Z" class="outline" transform="translate(75.85462875028733 116.26049013026088) rotate(538.8969616467839)"/><text x="69.861" y="3" fill="#000" font-family="sans-serif" font-size="8" pointer-events="none" text-anchor="middle" transform="translate(75.85462875028733 116.26049013026088) rotate(538.8969616467839) rotate(180 69.8614134158623 0)">FRIEND_OF</text></g></g><g class="layer nodes"><g class="node" transform="translate(96.59626946090324,44.86002277426165)"><circle cx="0" cy="0" r="25" fill="#4C8EDA" stroke="#2870c2" stroke-width="2" class="outline"/><text x="0" y="5" fill="#FFF" font-family="sans-serif" font-size="10" pointer-events="none" text-anchor="middle">Jimmy</text></g><g class="node" transform="translate(106.8504726170198,-85.36174095845061)"><circle cx="0" cy="0" r="25" fill="#4C8EDA" stroke="#2870c2" stroke-width="2" class="outline"/><text x="0" y="5" fill="#FFF" font-family="sans-serif" font-size="10" pointer-events="none" text-anchor="middle">Jack</text></g><g class="node" transform="translate(-15.567748408756552,-16.181205977179957)"><circle cx="0" cy="0" r="25" fill="#4C8EDA" stroke="#2870c2" stroke-width="2" class="outline"/><text x="0" y="5" fill="#FFF" font-family="sans-serif" font-size="10" pointer-events="none" text-anchor="middle">Alice</text></g><g class="node" transform="translate(201.10294155436563,123.78224393249062)"><circle cx="0" cy="0" r="25" fill="#4C8EDA" stroke="#2870c2" stroke-width="2" class="outline"/><text x="0" y="5" fill="#FFF" font-family="sans-serif" font-size="10" pointer-events="none" text-anchor="middle">Ceri</text></g><g class="node" transform="translate(367.077413917264,66.18756906759316)"><circle cx="0" cy="0" r="25" fill="#4C8EDA" stroke="#2870c2" stroke-width="2" class="outline"/><text x="0" y="5" fill="#FFF" font-family="sans-serif" font-size="10" pointer-events="none" text-anchor="middle">Moham…</text></g><g class="node" transform="translate(371.91272874831856,-68.73088395487304)"><circle cx="0" cy="0" r="25" fill="#4C8EDA" stroke="#2870c2" stroke-width="2" class="outline"/><text x="0" y="5" fill="#FFF" font-family="sans-serif" font-size="10" pointer-events="none" text-anchor="middle">Michael</text></g><g class="node" transform="translate(256.4115659437839,-17.68674833036063)"><circle cx="0" cy="0" r="25" fill="#4C8EDA" stroke="#2870c2" stroke-width="2" class="outline"/><text x="0" y="5" fill="#FFF" font-family="sans-serif" font-size="10" pointer-events="none" text-anchor="middle">Ethan</text></g><g class="node" transform="translate(75.85462875028733,116.26049013026088)"><circle cx="0" cy="0" r="25" fill="#4C8EDA" stroke="#2870c2" stroke-width="2" class="outline"/><text x="0" y="5" fill="#FFF" font-family="sans-serif" font-size="10" pointer-events="none" text-anchor="middle">Lara</text></g><g class="node" transform="translate(-70.84100926901468,119.08497231327384)"><circle cx="0" cy="0" r="25" fill="#4C8EDA" stroke="#2870c2" stroke-width="2" class="outline"/><text x="0" y="5" fill="#FFF" font-family="sans-serif" font-size="10" pointer-events="none" text-anchor="middle">Amir</text></g><g class="node" transform="translate(-148.78045405712942,-25.278047614072506)"><circle cx="0" cy="0" r="25" fill="#4C8EDA" stroke="#2870c2" stroke-width="2" class="outline"/><text x="0" y="5" fill="#FFF" font-family="sans-serif" font-size="10" pointer-events="none" text-anchor="middle">Willie</text></g></g></svg>