<svg xmlns="http://www.w3.org/2000/svg" width="482.113" height="319.199" viewBox="-128.602 -110.837 482.113 319.199"><title>Neo4j Graph Visualization</title><desc>Created using Neo4j (http://www.neo4j.com/)</desc><g class="layer relationships"><g class="relationship"><path fill="#A5ABB6" stroke="none" d="M 25 1 L 78.15815064719087 1 L 78.15815064719087 -1 L 25 -1 Z M 105.05268189719087 1 L 158.21083254438173 1 L 158.21083254438173 4 L 166.21083254438173 0 L 158.21083254438173 -4 L 158.21083254438173 -1 L 105.05268189719087 -1 Z" class="outline" transform="translate(7.508299365584016 179.36154476451182) rotate(359.8449276712636)"/><text x="91.605" y="3" fill="#000" font-family="sans-serif" font-size="8" pointer-events="none" text-anchor="middle" transform="translate(7.508299365584016 179.36154476451182) rotate(359.8449276712636)">TYPE</text></g><g class="relationship"><path fill="#A5ABB6" stroke="none" d="M 25 1 L 68.89573652671062 1 L 68.89573652671062 -1 L 25 -1 Z M 95.79026777671062 1 L 139.68600430342124 1 L 139.68600430342124 4 L 147.68600430342124 0 L 139.68600430342124 -4 L 139.68600430342124 -1 L 95.79026777671062 -1 Z" class="outline" transform="translate(198.71843157536375 178.84402893466512) rotate(316.756478653714)"/><text x="82.343" y="3" fill="#000" font-family="sans-serif" font-size="8" pointer-events="none" text-anchor="middle" transform="translate(198.71843157536375 178.84402893466512) rotate(316.756478653714)">TYPE</text></g><g class="relationship"><path fill="#A5ABB6" stroke="none" d="M 25 1 L 75.58615333771368 1 L 75.58615333771368 -1 L 25 -1 Z M 102.48068458771368 1 L 153.06683792542736 1 L 153.06683792542736 4 L 161.06683792542736 0 L 153.06683792542736 -4 L 153.06683792542736 -1 L 102.48068458771368 -1 Z" class="outline" transform="translate(324.51128227846584 60.53673924265888) rotate(229.92260422069324)"/><text x="89.033" y="3" fill="#000" font-family="sans-serif" font-size="8" pointer-events="none" text-anchor="middle" transform="translate(324.51128227846584 60.53673924265888) rotate(229.92260422069324) rotate(180 89.03341896271368 0)">TYPE</text></g><g class="relationship"><path fill="#A5ABB6" stroke="none" d="M 25 1 L 81.46992136561721 1 L 81.46992136561721 -1 L 25 -1 Z M 108.36445261561721 1 L 164.83437398123442 1 L 164.83437398123442 4 L 172.83437398123442 0 L 164.83437398123442 -4 L 164.83437398123442 -1 L 108.36445261561721 -1 Z" class="outline" transform="translate(204.71739496069367 -81.83703902027887) rotate(538.543102652972)"/><text x="94.917" y="3" fill="#000" font-family="sans-serif" font-size="8" pointer-events="none" text-anchor="middle" transform="translate(204.71739496069367 -81.83703902027887) rotate(538.543102652972) rotate(180 94.91718699061721 0)">TYPE</text></g><g class="relationship"><path fill="#A5ABB6" stroke="none" d="M 25 1 L 65.85336997365668 1 L 65.85336997365668 -1 L 25 -1 Z M 92.74790122365668 1 L 133.60127119731337 1 L 133.60127119731337 4 L 141.60127119731337 0 L 133.60127119731337 -4 L 133.60127119731337 -1 L 92.74790122365668 -1 Z" class="outline" transform="translate(6.946973990587555 -76.8071167689967) rotate(489.75774159906535)"/><text x="79.301" y="3" fill="#000" font-family="sans-serif" font-size="8" pointer-events="none" text-anchor="middle" transform="translate(6.946973990587555 -76.8071167689967) rotate(489.75774159906535) rotate(180 79.30063559865668 0)">TYPE</text></g></g><g class="layer nodes"><g class="node" transform="translate(7.508299365584016,179.36154476451182)"><circle cx="0" cy="0" r="25" fill="#4C8EDA" stroke="#2870c2" stroke-width="2" class="outline"/><text x="0" y="5" fill="#FFF" font-family="sans-serif" font-size="10" pointer-events="none" text-anchor="middle">0</text></g><g class="node" transform="translate(198.71843157536375,178.84402893466512)"><circle cx="0" cy="0" r="25" fill="#4C8EDA" stroke="#2870c2" stroke-width="2" class="outline"/><text x="0" y="5" fill="#FFF" font-family="sans-serif" font-size="10" pointer-events="none" text-anchor="middle">1</text></g><g class="node" transform="translate(324.51128227846584,60.53673924265888)"><circle cx="0" cy="0" r="25" fill="#4C8EDA" stroke="#2870c2" stroke-width="2" class="outline"/><text x="0" y="5" fill="#FFF" font-family="sans-serif" font-size="10" pointer-events="none" text-anchor="middle">2</text></g><g class="node" transform="translate(204.71739496069367,-81.83703902027887)"><circle cx="0" cy="0" r="25" fill="#4C8EDA" stroke="#2870c2" stroke-width="2" class="outline"/><text x="0" y="5" fill="#FFF" font-family="sans-serif" font-size="10" pointer-events="none" text-anchor="middle">3</text></g><g class="node" transform="translate(6.946973990587555,-76.8071167689967)"><circle cx="0" cy="0" r="25" fill="#4C8EDA" stroke="#2870c2" stroke-width="2" class="outline"/><text x="0" y="5" fill="#FFF" font-family="sans-serif" font-size="10" pointer-events="none" text-anchor="middle">4</text></g><g class="node" transform="translate(-99.60168268240247,51.26851450308429)"><circle cx="0" cy="0" r="25" fill="#4C8EDA" stroke="#2870c2" stroke-width="2" class="outline"/><text x="0" y="5" fill="#FFF" font-family="sans-serif" font-size="10" pointer-events="none" text-anchor="middle">5</text></g></g></svg>